ply
format ascii 1.0
element vertex 306
property float x
property float y
property float z
property float nx
property float ny
property float nz
property uchar red
property uchar green
property uchar blue
element face 102
property list uchar int vertex_index
end_header
0 30 0 -1 0 0 13 7 9
0 0 0 -1 0 0 13 7 9
0 0 44 -1 0 0 13 7 9
0 30 0 -1 0 0 13 7 9
0 0 44 -1 0 0 13 7 9
0 30 44 -1 0 0 13 7 9
1 0 1 1 0 0 13 7 9
1 30 1 1 0 0 13 7 9
1 0 5 1 0 0 13 7 9
1 0 5 1 0 0 13 7 9
1 30 1 1 0 0 13 7 9
1 25 5 1 0 0 13 7 9
1 25 5 1 0 0 13 7 9
1 30 1 1 0 0 13 7 9
1 25 33 1 0 0 13 7 9
1 0 33 1 0 0 13 7 9
1 25 33 1 0 0 13 7 9
1 0 43 1 0 0 13 7 9
1 25 33 1 0 0 13 7 9
1 30 1 1 0 0 13 7 9
1 30 43 1 0 0 13 7 9
1 0 43 1 0 0 13 7 9
1 25 33 1 0 0 13 7 9
1 30 43 1 0 0 13 7 9
7 0 5 1 0 0 143 250 55
7 25 5 1 0 0 143 250 55
7 0 33 1 0 0 143 250 55
7 0 33 1 0 0 143 250 55
7 25 5 1 0 0 143 250 55
7 25 33 1 0 0 143 250 55
9 8 38 -1 0 0 143 250 55
9 0 38 -1 0 0 143 250 55
9 0 43 -1 0 0 143 250 55
9 8 38 -1 0 0 143 250 55
9 0 43 -1 0 0 143 250 55
9 8 43 -1 0 0 143 250 55
12 5 9 -1 0 0 143 250 55
12 0 9 -1 0 0 143 250 55
12 0 25 -1 0 0 143 250 55
12 5 9 -1 0 0 143 250 55
12 0 25 -1 0 0 143 250 55
12 5 25 -1 0 0 143 250 55
21 0 38 1 0 0 143 250 55
21 8 38 1 0 0 143 250 55
21 0 43 1 0 0 143 250 55
21 0 43 1 0 0 143 250 55
21 8 38 1 0 0 143 250 55
21 8 43 1 0 0 143 250 55
28 5 2 -1 0 0 143 250 55
28 0 2 -1 0 0 143 250 55
28 0 8 -1 0 0 143 250 55
28 5 2 -1 0 0 143 250 55
28 0 8 -1 0 0 143 250 55
28 5 8 -1 0 0 143 250 55
28 5 26 -1 0 0 143 250 55
28 0 26 -1 0 0 143 250 55
28 0 32 -1 0 0 143 250 55
28 5 26 -1 0 0 143 250 55
28 0 32 -1 0 0 143 250 55
28 5 32 -1 0 0 143 250 55
32 30 1 -1 0 0 13 7 9
32 0 1 -1 0 0 13 7 9
32 0 2 -1 0 0 13 7 9
32 30 1 -1 0 0 13 7 9
32 0 2 -1 0 0 13 7 9
32 5 2 -1 0 0 13 7 9
32 30 1 -1 0 0 13 7 9
32 5 2 -1 0 0 13 7 9
32 5 8 -1 0 0 13 7 9
32 5 8 -1 0 0 13 7 9
32 0 8 -1 0 0 13 7 9
32 0 9 -1 0 0 13 7 9
32 5 8 -1 0 0 13 7 9
32 0 9 -1 0 0 13 7 9
32 5 9 -1 0 0 13 7 9
32 30 1 -1 0 0 13 7 9
32 5 8 -1 0 0 13 7 9
32 5 9 -1 0 0 13 7 9
32 30 1 -1 0 0 13 7 9
32 5 9 -1 0 0 13 7 9
32 5 25 -1 0 0 13 7 9
32 5 25 -1 0 0 13 7 9
32 0 25 -1 0 0 13 7 9
32 0 26 -1 0 0 13 7 9
32 5 25 -1 0 0 13 7 9
32 0 26 -1 0 0 13 7 9
32 5 26 -1 0 0 13 7 9
32 30 1 -1 0 0 13 7 9
32 5 25 -1 0 0 13 7 9
32 5 26 -1 0 0 13 7 9
32 30 1 -1 0 0 13 7 9
32 5 26 -1 0 0 13 7 9
32 5 32 -1 0 0 13 7 9
32 5 32 -1 0 0 13 7 9
32 0 32 -1 0 0 13 7 9
32 0 43 -1 0 0 13 7 9
32 30 1 -1 0 0 13 7 9
32 5 32 -1 0 0 13 7 9
32 0 43 -1 0 0 13 7 9
32 30 1 -1 0 0 13 7 9
32 0 43 -1 0 0 13 7 9
32 30 43 -1 0 0 13 7 9
33 0 0 1 0 0 13 7 9
33 30 0 1 0 0 13 7 9
33 0 44 1 0 0 13 7 9
33 0 44 1 0 0 13 7 9
33 30 0 1 0 0 13 7 9
33 30 44 1 0 0 13 7 9
0 0 44 0 -1 0 13 7 9
0 0 0 0 -1 0 13 7 9
1 0 44 0 -1 0 13 7 9
1 0 44 0 -1 0 13 7 9
0 0 0 0 -1 0 13 7 9
1 0 1 0 -1 0 13 7 9
1 0 1 0 -1 0 13 7 9
0 0 0 0 -1 0 13 7 9
32 0 1 0 -1 0 13 7 9
32 0 1 0 -1 0 13 7 9
0 0 0 0 -1 0 13 7 9
33 0 0 0 -1 0 13 7 9
32 0 44 0 -1 0 13 7 9
32 0 1 0 -1 0 13 7 9
33 0 0 0 -1 0 13 7 9
32 0 44 0 -1 0 13 7 9
33 0 0 0 -1 0 13 7 9
33 0 44 0 -1 0 13 7 9
1 0 33 0 -1 0 143 250 55
1 0 5 0 -1 0 143 250 55
7 0 5 0 -1 0 143 250 55
1 0 33 0 -1 0 143 250 55
7 0 5 0 -1 0 143 250 55
7 0 33 0 -1 0 143 250 55
1 0 44 0 -1 0 13 7 9
1 0 43 0 -1 0 13 7 9
32 0 43 0 -1 0 13 7 9
1 0 44 0 -1 0 13 7 9
32 0 43 0 -1 0 13 7 9
32 0 44 0 -1 0 13 7 9
9 0 43 0 -1 0 143 250 55
9 0 38 0 -1 0 143 250 55
21 0 38 0 -1 0 143 250 55
9 0 43 0 -1 0 143 250 55
21 0 38 0 -1 0 143 250 55
21 0 43 0 -1 0 143 250 55
12 0 25 0 -1 0 143 250 55
12 0 9 0 -1 0 143 250 55
32 0 9 0 -1 0 143 250 55
12 0 25 0 -1 0 143 250 55
32 0 9 0 -1 0 143 250 55
32 0 25 0 -1 0 143 250 55
28 0 8 0 -1 0 143 250 55
28 0 2 0 -1 0 143 250 55
32 0 2 0 -1 0 143 250 55
28 0 8 0 -1 0 143 250 55
32 0 2 0 -1 0 143 250 55
32 0 8 0 -1 0 143 250 55
28 0 32 0 -1 0 143 250 55
28 0 26 0 -1 0 143 250 55
32 0 26 0 -1 0 143 250 55
28 0 32 0 -1 0 143 250 55
32 0 26 0 -1 0 143 250 55
32 0 32 0 -1 0 143 250 55
12 5 9 0 1 0 143 250 55
12 5 25 0 1 0 143 250 55
32 5 9 0 1 0 143 250 55
32 5 9 0 1 0 143 250 55
12 5 25 0 1 0 143 250 55
32 5 25 0 1 0 143 250 55
28 5 2 0 1 0 143 250 55
28 5 8 0 1 0 143 250 55
32 5 2 0 1 0 143 250 55
32 5 2 0 1 0 143 250 55
28 5 8 0 1 0 143 250 55
32 5 8 0 1 0 143 250 55
28 5 26 0 1 0 143 250 55
28 5 32 0 1 0 143 250 55
32 5 26 0 1 0 143 250 55
32 5 26 0 1 0 143 250 55
28 5 32 0 1 0 143 250 55
32 5 32 0 1 0 143 250 55
9 8 38 0 1 0 143 250 55
9 8 43 0 1 0 143 250 55
21 8 38 0 1 0 143 250 55
21 8 38 0 1 0 143 250 55
9 8 43 0 1 0 143 250 55
21 8 43 0 1 0 143 250 55
1 25 5 0 1 0 143 250 55
1 25 33 0 1 0 143 250 55
7 25 5 0 1 0 143 250 55
7 25 5 0 1 0 143 250 55
1 25 33 0 1 0 143 250 55
7 25 33 0 1 0 143 250 55
0 30 0 0 1 0 13 7 9
0 30 44 0 1 0 13 7 9
1 30 44 0 1 0 13 7 9
0 30 0 0 1 0 13 7 9
1 30 44 0 1 0 13 7 9
1 30 1 0 1 0 13 7 9
0 30 0 0 1 0 13 7 9
1 30 1 0 1 0 13 7 9
32 30 1 0 1 0 13 7 9
0 30 0 0 1 0 13 7 9
32 30 1 0 1 0 13 7 9
33 30 0 0 1 0 13 7 9
32 30 1 0 1 0 13 7 9
32 30 44 0 1 0 13 7 9
33 30 0 0 1 0 13 7 9
33 30 0 0 1 0 13 7 9
32 30 44 0 1 0 13 7 9
33 30 44 0 1 0 13 7 9
1 30 43 0 1 0 13 7 9
1 30 44 0 1 0 13 7 9
32 30 43 0 1 0 13 7 9
32 30 43 0 1 0 13 7 9
1 30 44 0 1 0 13 7 9
32 30 44 0 1 0 13 7 9
33 0 0 0 0 -1 13 7 9
0 0 0 0 0 -1 13 7 9
0 30 0 0 0 -1 13 7 9
33 0 0 0 0 -1 13 7 9
0 30 0 0 0 -1 13 7 9
33 30 0 0 0 -1 13 7 9
1 0 1 0 0 1 13 7 9
32 0 1 0 0 1 13 7 9
1 30 1 0 0 1 13 7 9
1 30 1 0 0 1 13 7 9
32 0 1 0 0 1 13 7 9
32 30 1 0 0 1 13 7 9
32 0 2 0 0 -1 143 250 55
28 0 2 0 0 -1 143 250 55
28 5 2 0 0 -1 143 250 55
32 0 2 0 0 -1 143 250 55
28 5 2 0 0 -1 143 250 55
32 5 2 0 0 -1 143 250 55
7 0 5 0 0 -1 143 250 55
1 0 5 0 0 -1 143 250 55
1 25 5 0 0 -1 143 250 55
7 0 5 0 0 -1 143 250 55
1 25 5 0 0 -1 143 250 55
7 25 5 0 0 -1 143 250 55
28 0 8 0 0 1 143 250 55
32 0 8 0 0 1 143 250 55
28 5 8 0 0 1 143 250 55
28 5 8 0 0 1 143 250 55
32 0 8 0 0 1 143 250 55
32 5 8 0 0 1 143 250 55
32 0 9 0 0 -1 143 250 55
12 0 9 0 0 -1 143 250 55
12 5 9 0 0 -1 143 250 55
32 0 9 0 0 -1 143 250 55
12 5 9 0 0 -1 143 250 55
32 5 9 0 0 -1 143 250 55
12 0 25 0 0 1 143 250 55
32 0 25 0 0 1 143 250 55
12 5 25 0 0 1 143 250 55
12 5 25 0 0 1 143 250 55
32 0 25 0 0 1 143 250 55
32 5 25 0 0 1 143 250 55
32 0 26 0 0 -1 143 250 55
28 0 26 0 0 -1 143 250 55
28 5 26 0 0 -1 143 250 55
32 0 26 0 0 -1 143 250 55
28 5 26 0 0 -1 143 250 55
32 5 26 0 0 -1 143 250 55
28 0 32 0 0 1 143 250 55
32 0 32 0 0 1 143 250 55
28 5 32 0 0 1 143 250 55
28 5 32 0 0 1 143 250 55
32 0 32 0 0 1 143 250 55
32 5 32 0 0 1 143 250 55
1 0 33 0 0 1 143 250 55
7 0 33 0 0 1 143 250 55
1 25 33 0 0 1 143 250 55
1 25 33 0 0 1 143 250 55
7 0 33 0 0 1 143 250 55
7 25 33 0 0 1 143 250 55
21 0 38 0 0 -1 143 250 55
9 0 38 0 0 -1 143 250 55
9 8 38 0 0 -1 143 250 55
21 0 38 0 0 -1 143 250 55
9 8 38 0 0 -1 143 250 55
21 8 38 0 0 -1 143 250 55
9 0 43 0 0 -1 13 7 9
1 0 43 0 0 -1 13 7 9
9 8 43 0 0 -1 13 7 9
9 8 43 0 0 -1 13 7 9
1 0 43 0 0 -1 13 7 9
1 30 43 0 0 -1 13 7 9
32 8 43 0 0 -1 13 7 9
9 8 43 0 0 -1 13 7 9
1 30 43 0 0 -1 13 7 9
32 8 43 0 0 -1 13 7 9
1 30 43 0 0 -1 13 7 9
32 30 43 0 0 -1 13 7 9
32 0 43 0 0 -1 13 7 9
21 0 43 0 0 -1 13 7 9
21 8 43 0 0 -1 13 7 9
32 0 43 0 0 -1 13 7 9
21 8 43 0 0 -1 13 7 9
32 8 43 0 0 -1 13 7 9
0 0 44 0 0 1 13 7 9
33 0 44 0 0 1 13 7 9
0 30 44 0 0 1 13 7 9
0 30 44 0 0 1 13 7 9
33 0 44 0 0 1 13 7 9
33 30 44 0 0 1 13 7 9
3 0 1 2
3 3 4 5
3 6 7 8
3 9 10 11
3 12 13 14
3 15 16 17
3 18 19 20
3 21 22 23
3 24 25 26
3 27 28 29
3 30 31 32
3 33 34 35
3 36 37 38
3 39 40 41
3 42 43 44
3 45 46 47
3 48 49 50
3 51 52 53
3 54 55 56
3 57 58 59
3 60 61 62
3 63 64 65
3 66 67 68
3 69 70 71
3 72 73 74
3 75 76 77
3 78 79 80
3 81 82 83
3 84 85 86
3 87 88 89
3 90 91 92
3 93 94 95
3 96 97 98
3 99 100 101
3 102 103 104
3 105 106 107
3 108 109 110
3 111 112 113
3 114 115 116
3 117 118 119
3 120 121 122
3 123 124 125
3 126 127 128
3 129 130 131
3 132 133 134
3 135 136 137
3 138 139 140
3 141 142 143
3 144 145 146
3 147 148 149
3 150 151 152
3 153 154 155
3 156 157 158
3 159 160 161
3 162 163 164
3 165 166 167
3 168 169 170
3 171 172 173
3 174 175 176
3 177 178 179
3 180 181 182
3 183 184 185
3 186 187 188
3 189 190 191
3 192 193 194
3 195 196 197
3 198 199 200
3 201 202 203
3 204 205 206
3 207 208 209
3 210 211 212
3 213 214 215
3 216 217 218
3 219 220 221
3 222 223 224
3 225 226 227
3 228 229 230
3 231 232 233
3 234 235 236
3 237 238 239
3 240 241 242
3 243 244 245
3 246 247 248
3 249 250 251
3 252 253 254
3 255 256 257
3 258 259 260
3 261 262 263
3 264 265 266
3 267 268 269
3 270 271 272
3 273 274 275
3 276 277 278
3 279 280 281
3 282 283 284
3 285 286 287
3 288 289 290
3 291 292 293
3 294 295 296
3 297 298 299
3 300 301 302
3 303 304 305

